<?xml version="1.0" encoding="UTF-8" standalone="no"?>
<!DOCTYPE svg PUBLIC "-//W3C//DTD SVG 1.1//EN"
 "http://www.w3.org/Graphics/SVG/1.1/DTD/svg11.dtd">
<!-- Generated by graphviz version 2.38.0 (20140413.2041)
 -->
<!-- Title: G Pages: 1 -->
<svg width="268pt" height="810pt"
 viewBox="0.00 0.00 267.93 810.25" xmlns="http://www.w3.org/2000/svg" xmlns:xlink="http://www.w3.org/1999/xlink">
<g id="graph0" class="graph" transform="scale(1 1) rotate(0) translate(4 806.254)">
<title>G</title>
<polygon fill="white" stroke="none" points="-4,4 -4,-806.254 263.935,-806.254 263.935,4 -4,4"/>
<!-- n1 -->
<g id="node1" class="node"><title>n1</title>
<g id="a_node1"><a xlink:title="[[string &quot;local function get_network()...&quot;]]:9_">
<ellipse fill="none" stroke="black" cx="129.967" cy="-181.664" rx="125.035" ry="55.3091"/>
<text text-anchor="middle" x="129.967" y="-205.464" font-family="Times,serif" font-size="14.00">output (1)</text>
<text text-anchor="start" x="49.5666" y="-191.464" font-family="Times,serif" font-size="14.00">input = {Tensor[10]}</text>
<text text-anchor="start" x="49.5666" y="-177.464" font-family="Times,serif" font-size="14.00">module = nn.Linear(10 &#45;&gt; 1)</text>
<text text-anchor="start" x="49.5666" y="-163.464" font-family="Times,serif" font-size="14.00">reverseMap = {}</text>
<text text-anchor="middle" x="129.967" y="-149.464" font-family="Times,serif" font-size="14.00">gradOutput = {Tensor[1]}</text>
</a>
</g>
</g>
<!-- n2 -->
<g id="node2" class="node"><title>n2</title>
<g id="a_node2"><a xlink:title="[[C]]:&#45;1_">
<ellipse fill="none" stroke="black" cx="129.967" cy="-45.2548" rx="114.56" ry="45.011"/>
<text text-anchor="middle" x="129.967" y="-62.0548" font-family="Times,serif" font-size="14.00">Node2</text>
<text text-anchor="start" x="56.8058" y="-48.0548" font-family="Times,serif" font-size="14.00">input = {Tensor[1]}</text>
<text text-anchor="start" x="56.8058" y="-34.0548" font-family="Times,serif" font-size="14.00">reverseMap = {}</text>
<text text-anchor="middle" x="129.967" y="-20.0548" font-family="Times,serif" font-size="14.00">gradOutput = {Tensor[1]}</text>
</a>
</g>
</g>
<!-- n1&#45;&gt;n2 -->
<g id="edge1" class="edge"><title>n1&#45;&gt;n2</title>
<path fill="none" stroke="black" d="M129.967,-126.382C129.967,-117.991 129.967,-109.32 129.967,-100.921"/>
<polygon fill="black" stroke="black" points="133.468,-100.846 129.967,-90.8463 126.468,-100.846 133.468,-100.846"/>
</g>
<!-- n3 -->
<g id="node3" class="node"><title>n3</title>
<g id="a_node3"><a xlink:title="[[string &quot;local function get_network()...&quot;]]:8_">
<ellipse fill="none" stroke="black" cx="129.967" cy="-327.973" rx="119.96" ry="55.3091"/>
<text text-anchor="middle" x="129.967" y="-351.773" font-family="Times,serif" font-size="14.00">h2 (3)</text>
<text text-anchor="start" x="53.3058" y="-337.773" font-family="Times,serif" font-size="14.00">input = {Tensor[10]}</text>
<text text-anchor="start" x="53.3058" y="-323.773" font-family="Times,serif" font-size="14.00">module = nn.Sigmoid</text>
<text text-anchor="start" x="53.3058" y="-309.773" font-family="Times,serif" font-size="14.00">reverseMap = {}</text>
<text text-anchor="middle" x="129.967" y="-295.773" font-family="Times,serif" font-size="14.00">gradOutput = {Tensor[10]}</text>
</a>
</g>
</g>
<!-- n3&#45;&gt;n1 -->
<g id="edge2" class="edge"><title>n3&#45;&gt;n1</title>
<path fill="none" stroke="black" d="M129.967,-272.416C129.967,-264.131 129.967,-255.517 129.967,-247.047"/>
<polygon fill="black" stroke="black" points="133.468,-246.819 129.967,-236.819 126.468,-246.819 133.468,-246.819"/>
</g>
<!-- n4 -->
<g id="node4" class="node"><title>n4</title>
<g id="a_node4"><a xlink:title="[[string &quot;local function get_network()...&quot;]]:7_">
<ellipse fill="none" stroke="black" cx="129.967" cy="-474.281" rx="129.935" ry="55.3091"/>
<text text-anchor="middle" x="129.967" y="-498.081" font-family="Times,serif" font-size="14.00">h1 (4)</text>
<text text-anchor="start" x="46.0666" y="-484.081" font-family="Times,serif" font-size="14.00">input = {Tensor[20]}</text>
<text text-anchor="start" x="46.0666" y="-470.081" font-family="Times,serif" font-size="14.00">module = nn.Linear(20 &#45;&gt; 10)</text>
<text text-anchor="start" x="46.0666" y="-456.081" font-family="Times,serif" font-size="14.00">reverseMap = {}</text>
<text text-anchor="middle" x="129.967" y="-442.081" font-family="Times,serif" font-size="14.00">gradOutput = {Tensor[10]}</text>
</a>
</g>
</g>
<!-- n4&#45;&gt;n3 -->
<g id="edge3" class="edge"><title>n4&#45;&gt;n3</title>
<path fill="none" stroke="black" d="M129.967,-418.724C129.967,-410.44 129.967,-401.826 129.967,-393.356"/>
<polygon fill="black" stroke="black" points="133.468,-393.128 129.967,-383.128 126.468,-393.128 133.468,-393.128"/>
</g>
<!-- n5 -->
<g id="node5" class="node"><title>n5</title>
<g id="a_node5"><a xlink:title="[[string &quot;local function get_network()...&quot;]]:3_">
<ellipse fill="none" stroke="black" cx="129.967" cy="-620.59" rx="119.96" ry="55.3091"/>
<text text-anchor="middle" x="129.967" y="-644.39" font-family="Times,serif" font-size="14.00">input (5)</text>
<text text-anchor="start" x="53.3058" y="-630.39" font-family="Times,serif" font-size="14.00">input = {Tensor[20]}</text>
<text text-anchor="start" x="53.3058" y="-616.39" font-family="Times,serif" font-size="14.00">module = nn.Identity</text>
<text text-anchor="start" x="53.3058" y="-602.39" font-family="Times,serif" font-size="14.00">reverseMap = {}</text>
<text text-anchor="middle" x="129.967" y="-588.39" font-family="Times,serif" font-size="14.00">gradOutput = {Tensor[20]}</text>
</a>
</g>
</g>
<!-- n5&#45;&gt;n4 -->
<g id="edge4" class="edge"><title>n5&#45;&gt;n4</title>
<path fill="none" stroke="black" d="M129.967,-565.033C129.967,-556.748 129.967,-548.134 129.967,-539.664"/>
<polygon fill="black" stroke="black" points="133.468,-539.437 129.967,-529.437 126.468,-539.437 133.468,-539.437"/>
</g>
<!-- n6 -->
<g id="node6" class="node"><title>n6</title>
<g id="a_node6"><a xlink:title="[[C]]:&#45;1_">
<ellipse fill="none" stroke="black" cx="129.967" cy="-756.999" rx="119.96" ry="45.011"/>
<text text-anchor="middle" x="129.967" y="-773.799" font-family="Times,serif" font-size="14.00">Node6</text>
<text text-anchor="start" x="53.3058" y="-759.799" font-family="Times,serif" font-size="14.00">input = {Tensor[20]}</text>
<text text-anchor="start" x="53.3058" y="-745.799" font-family="Times,serif" font-size="14.00">reverseMap = {}</text>
<text text-anchor="middle" x="129.967" y="-731.799" font-family="Times,serif" font-size="14.00">gradOutput = {Tensor[20]}</text>
</a>
</g>
</g>
<!-- n6&#45;&gt;n5 -->
<g id="edge5" class="edge"><title>n6&#45;&gt;n5</title>
<path fill="none" stroke="black" d="M129.967,-711.616C129.967,-703.372 129.967,-694.608 129.967,-685.909"/>
<polygon fill="black" stroke="black" points="133.468,-685.761 129.967,-675.761 126.468,-685.762 133.468,-685.761"/>
</g>
</g>
</svg>
