<?xml version="1.0" encoding="UTF-8" standalone="no"?>
<!DOCTYPE svg PUBLIC "-//W3C//DTD SVG 1.1//EN"
 "http://www.w3.org/Graphics/SVG/1.1/DTD/svg11.dtd">
<!-- Generated by graphviz version 2.38.0 (20140413.2041)
 -->
<!-- Title: G Pages: 1 -->
<svg width="268pt" height="674pt"
 viewBox="0.00 0.00 267.93 673.86" xmlns="http://www.w3.org/2000/svg" xmlns:xlink="http://www.w3.org/1999/xlink">
<g id="graph0" class="graph" transform="scale(1 1) rotate(0) translate(4 669.862)">
<title>G</title>
<polygon fill="white" stroke="none" points="-4,4 -4,-669.862 263.935,-669.862 263.935,4 -4,4"/>
<text text-anchor="middle" x="129.967" y="-650.662" font-family="Times,serif" font-size="14.00">MyMLPError</text>
<!-- n1 -->
<g id="node1" class="node"><title>n1</title>
<g id="a_node1"><a xlink:title="[[string &quot;&#45;&#45; We need to set debug flag to true...&quot;]]:12_">
<ellipse fill="none" stroke="black" cx="129.967" cy="-142.066" rx="125.035" ry="35.2113"/>
<text text-anchor="middle" x="129.967" y="-151.866" font-family="Times,serif" font-size="14.00">output (1)</text>
<text text-anchor="start" x="49.5666" y="-137.866" font-family="Times,serif" font-size="14.00">module = nn.Linear(10 &#45;&gt; 1)</text>
<text text-anchor="middle" x="129.967" y="-123.866" font-family="Times,serif" font-size="14.00">reverseMap = {}</text>
</a>
</g>
</g>
<!-- n2 -->
<g id="node2" class="node"><title>n2</title>
<g id="a_node2"><a xlink:title="[[C]]:&#45;1_">
<ellipse fill="none" stroke="black" cx="129.967" cy="-35.3553" rx="78.145" ry="35.2113"/>
<text text-anchor="middle" x="129.967" y="-45.1553" font-family="Times,serif" font-size="14.00">Node2</text>
<text text-anchor="start" x="82.7619" y="-31.1553" font-family="Times,serif" font-size="14.00">input = {}</text>
<text text-anchor="middle" x="129.967" y="-17.1553" font-family="Times,serif" font-size="14.00">reverseMap = {}</text>
</a>
</g>
</g>
<!-- n1&#45;&gt;n2 -->
<g id="edge1" class="edge"><title>n1&#45;&gt;n2</title>
<path fill="none" stroke="black" d="M129.967,-106.49C129.967,-98.3583 129.967,-89.5777 129.967,-81.0721"/>
<polygon fill="black" stroke="black" points="133.468,-80.8954 129.967,-70.8954 126.468,-80.8955 133.468,-80.8954"/>
</g>
<!-- n3 -->
<g id="node3" class="node"><title>n3</title>
<g id="a_node3"><a xlink:title="[[string &quot;&#45;&#45; We need to set debug flag to true...&quot;]]:11_">
<ellipse fill="none" stroke="black" cx="129.967" cy="-248.777" rx="97.4405" ry="35.2113"/>
<text text-anchor="middle" x="129.967" y="-258.577" font-family="Times,serif" font-size="14.00">h2 (3)</text>
<text text-anchor="start" x="69.0456" y="-244.577" font-family="Times,serif" font-size="14.00">module = nn.Sigmoid</text>
<text text-anchor="middle" x="129.967" y="-230.577" font-family="Times,serif" font-size="14.00">reverseMap = {}</text>
</a>
</g>
</g>
<!-- n3&#45;&gt;n1 -->
<g id="edge2" class="edge"><title>n3&#45;&gt;n1</title>
<path fill="none" stroke="black" d="M129.967,-213.2C129.967,-205.069 129.967,-196.288 129.967,-187.783"/>
<polygon fill="black" stroke="black" points="133.468,-187.606 129.967,-177.606 126.468,-187.606 133.468,-187.606"/>
</g>
<!-- n4 -->
<g id="node4" class="node"><title>n4</title>
<g id="a_node4"><a xlink:title="[[string &quot;&#45;&#45; We need to set debug flag to true...&quot;]]:10_">
<ellipse fill="red" stroke="black" cx="129.967" cy="-365.387" rx="129.935" ry="45.011"/>
<text text-anchor="middle" x="129.967" y="-382.187" font-family="Times,serif" font-size="14.00">h1 (4)</text>
<text text-anchor="start" x="46.0666" y="-368.187" font-family="Times,serif" font-size="14.00">input = {Tensor[15]}</text>
<text text-anchor="start" x="46.0666" y="-354.187" font-family="Times,serif" font-size="14.00">module = nn.Linear(20 &#45;&gt; 10)</text>
<text text-anchor="middle" x="129.967" y="-340.187" font-family="Times,serif" font-size="14.00">reverseMap = {}</text>
</a>
</g>
</g>
<!-- n4&#45;&gt;n3 -->
<g id="edge3" class="edge"><title>n4&#45;&gt;n3</title>
<path fill="none" stroke="black" d="M129.967,-320.076C129.967,-311.656 129.967,-302.842 129.967,-294.413"/>
<polygon fill="black" stroke="black" points="133.468,-294.375 129.967,-284.375 126.468,-294.375 133.468,-294.375"/>
</g>
<!-- n5 -->
<g id="node5" class="node"><title>n5</title>
<g id="a_node5"><a xlink:title="[[string &quot;&#45;&#45; We need to set debug flag to true...&quot;]]:6_">
<ellipse fill="none" stroke="black" cx="129.967" cy="-491.897" rx="94.9811" ry="45.011"/>
<text text-anchor="middle" x="129.967" y="-508.697" font-family="Times,serif" font-size="14.00">input (5)</text>
<text text-anchor="start" x="70.799" y="-494.697" font-family="Times,serif" font-size="14.00">input = {Tensor[15]}</text>
<text text-anchor="start" x="70.799" y="-480.697" font-family="Times,serif" font-size="14.00">module = nn.Identity</text>
<text text-anchor="middle" x="129.967" y="-466.697" font-family="Times,serif" font-size="14.00">reverseMap = {}</text>
</a>
</g>
</g>
<!-- n5&#45;&gt;n4 -->
<g id="edge4" class="edge"><title>n5&#45;&gt;n4</title>
<path fill="none" stroke="black" d="M129.967,-446.297C129.967,-438.062 129.967,-429.378 129.967,-420.889"/>
<polygon fill="black" stroke="black" points="133.468,-420.675 129.967,-410.675 126.468,-420.675 133.468,-420.675"/>
</g>
<!-- n6 -->
<g id="node6" class="node"><title>n6</title>
<g id="a_node6"><a xlink:title="[[C]]:&#45;1_">
<ellipse fill="none" stroke="black" cx="129.967" cy="-608.507" rx="94.9811" ry="35.2113"/>
<text text-anchor="middle" x="129.967" y="-618.307" font-family="Times,serif" font-size="14.00">Node6</text>
<text text-anchor="start" x="70.799" y="-604.307" font-family="Times,serif" font-size="14.00">input = {Tensor[15]}</text>
<text text-anchor="middle" x="129.967" y="-590.307" font-family="Times,serif" font-size="14.00">reverseMap = {}</text>
</a>
</g>
</g>
<!-- n6&#45;&gt;n5 -->
<g id="edge5" class="edge"><title>n6&#45;&gt;n5</title>
<path fill="none" stroke="black" d="M129.967,-573.12C129.967,-565.063 129.967,-556.283 129.967,-547.584"/>
<polygon fill="black" stroke="black" points="133.468,-547.456 129.967,-537.456 126.468,-547.457 133.468,-547.456"/>
</g>
</g>
</svg>
